<svg xmlns="http://www.w3.org/2000/svg" width="31" height="26" viewBox="0 0 31 26" fill="none">
  <path
    d="M16.6518 0.5H10.5138V17.8868H13.1393V25.4998C15.7311 25.4998 16.6518 24.6643 16.6518 22.6589V0.5ZM10.5029 25.4999V19.8794H6.13792V0.500104H0V22.6591C0 24.5641 0.988798 25.5 2.93256 25.5L10.5029 25.4999Z"
    fill="#102F40" />
  <path
    d="M19.4451 0.5H23.103C27.4103 0.5 30.9505 2.20235 30.9505 5.61276V10.0432C30.9505 13.2264 27.4104 14.9286 23.103 15.156H19.4451V11.544H22.1823C24.03 11.544 25.0167 10.842 25.0167 9.70518V5.95076C25.0167 4.81406 24.0299 4.1226 22.1823 4.1226H19.4451V0.5Z"
    fill="#68BC25" />
  <path d="M25.4312 17.1469L31 25.4998H25.0086L19.4398 17.1469H25.4312Z" fill="#68BC25" />
</svg>